<svg version="1.1" xmlns="http://www.w3.org/2000/svg" xmlns:xlink="http://www.w3.org/1999/xlink" width="1366" height="592"><defs><symbol viewBox="-9,-20,18,40" id="symbol-1"><g fill="none" fill-rule="nonzero" stroke="none" stroke-width="3.75" stroke-linecap="butt" stroke-linejoin="miter" stroke-miterlimit="10" stroke-dasharray="" stroke-dashoffset="0" font-family="none" font-weight="none" font-size="none" text-anchor="none" style="mix-blend-mode: normal"><path d="M1,-20l8,8l-8,8l8,8l-8,8l8,8" stroke="#ffe8bb"/><path d="M-9,-20l8,8l-8,8l8,8l-8,8l8,8" stroke="#000000"/></g></symbol><symbol viewBox="-18.5,-18.5,37,37" id="symbol-2"><g fill="none" fill-rule="nonzero" stroke="none" stroke-width="none" stroke-linecap="butt" stroke-linejoin="miter" stroke-miterlimit="10" stroke-dasharray="" stroke-dashoffset="0" font-family="none" font-weight="none" font-size="none" text-anchor="none" style="mix-blend-mode: normal"><path d="M-11.5,-3.5c0,-8.28427 6.71573,-15 15,-15c8.28427,0 15,6.71573 15,15c0,8.28427 -6.71573,15 -15,15c-8.28427,0 -15,-6.71573 -15,-15z" fill="#4f4faf" stroke="none" stroke-width="1"/><path d="M-18.5,3.5c0,-8.28427 6.71573,-15 15,-15c8.28427,0 15,6.71573 15,15c0,8.28427 -6.71573,15 -15,15c-8.28427,0 -15,-6.71573 -15,-15z" fill="none" stroke="#000000" stroke-width="3.75"/></g></symbol><symbol viewBox="-12.5,-12.5,25,25" id="symbol-3"><g fill="none" fill-rule="nonzero" stroke="none" stroke-width="3.75" stroke-linecap="butt" stroke-linejoin="miter" stroke-miterlimit="10" stroke-dasharray="" stroke-dashoffset="0" font-family="none" font-weight="none" font-size="none" text-anchor="none" style="mix-blend-mode: normal"><path d="M12.5,-7.5l-20,20" stroke="#afe8b4"/><path d="M7.5,-12.5l-20,20" stroke="#000000"/></g></symbol><symbol viewBox="-17.64214,-17.64214,35.28427,35.28427" id="symbol-4"><g fill="none" fill-rule="nonzero" stroke="none" stroke-width="none" stroke-linecap="butt" stroke-linejoin="miter" stroke-miterlimit="10" stroke-dasharray="" stroke-dashoffset="0" font-family="none" font-weight="none" font-size="none" text-anchor="none" style="mix-blend-mode: normal"><path d="M-10.64214,10.64214l0,-28.28427l28.28427,0l0,28.28427z" fill="#f44e45" stroke="none" stroke-width="1"/><path d="M-17.64214,17.64214v-28.28427l28.28427,0l0,28.28427z" fill="none" stroke="#000000" stroke-width="3.75"/></g></symbol><symbol viewBox="-21.32051,-19,42.64102,38" id="symbol-5"><g fill="none" fill-rule="nonzero" stroke="none" stroke-width="none" stroke-linecap="butt" stroke-linejoin="miter" stroke-miterlimit="10" stroke-dasharray="" stroke-dashoffset="0" font-family="none" font-weight="none" font-size="none" text-anchor="none" style="mix-blend-mode: normal"><path d="M-21.32051,11l17.32051,-30l17.32051,30z" fill="#f4d65b" stroke="none" stroke-width="1"/><path d="M-13.32051,19l17.32051,-30l17.32051,30z" fill="none" stroke="#000000" stroke-width="3.75"/></g></symbol></defs><g fill="none" fill-rule="nonzero" stroke="none" stroke-width="1" stroke-linecap="butt" stroke-linejoin="miter" stroke-miterlimit="10" stroke-dasharray="" stroke-dashoffset="0" font-family="none" font-weight="none" font-size="none" text-anchor="none" style="mix-blend-mode: normal"><use x="100" y="81" xlink:href="#symbol-1" width="18" height="40" overflow="visible"/><use x="213.5" y="65.5" xlink:href="#symbol-2" width="37" height="37" overflow="visible"/><use x="398.5" y="70.5" xlink:href="#symbol-3" width="25" height="25" overflow="visible"/><use x="536.5" y="42.5" xlink:href="#symbol-3" width="25" height="25" overflow="visible"/><use x="765.5" y="77.5" xlink:href="#symbol-2" width="37" height="37" overflow="visible"/><use x="925" y="60" xlink:href="#symbol-1" width="18" height="40" overflow="visible"/><use x="1061" y="74" xlink:href="#symbol-1" width="18" height="40" overflow="visible"/><use x="1236.35786" y="18.35786" xlink:href="#symbol-4" width="35.28427" height="35.28427" overflow="visible"/><use x="1445.5" y="23.5" xlink:href="#symbol-3" width="25" height="25" overflow="visible"/><use x="1622" y="22" xlink:href="#symbol-1" width="18" height="40" overflow="visible"/><use x="30.35786" y="216.35786" xlink:href="#symbol-4" width="35.28427" height="35.28427" overflow="visible"/><use x="249.5" y="256.5" xlink:href="#symbol-2" width="37" height="37" overflow="visible"/><use x="409.35786" y="222.35786" xlink:href="#symbol-4" width="35.28427" height="35.28427" overflow="visible"/><use x="549.67949" y="182" xlink:href="#symbol-5" width="42.64102" height="38" overflow="visible"/><use x="743.5" y="236.5" xlink:href="#symbol-3" width="25" height="25" overflow="visible"/><use x="896.5" y="239.5" xlink:href="#symbol-3" width="25" height="25" overflow="visible"/><use x="1058.67949" y="192" xlink:href="#symbol-5" width="42.64102" height="38" overflow="visible"/><use x="1211" y="244" xlink:href="#symbol-1" width="18" height="40" overflow="visible"/><use x="1403.67949" y="216" xlink:href="#symbol-5" width="42.64102" height="38" overflow="visible"/><use x="1575.67949" y="213" xlink:href="#symbol-5" width="42.64102" height="38" overflow="visible"/><use x="34.5" y="404.5" xlink:href="#symbol-2" width="37" height="37" overflow="visible"/><use x="181.5" y="415.5" xlink:href="#symbol-2" width="37" height="37" overflow="visible"/><use x="419.35786" y="401.35786" xlink:href="#symbol-4" width="35.28427" height="35.28427" overflow="visible"/><use x="569.5" y="376.5" xlink:href="#symbol-2" width="37" height="37" overflow="visible"/><use x="756" y="386" xlink:href="#symbol-1" width="18" height="40" overflow="visible"/><use x="924.67949" y="412" xlink:href="#symbol-5" width="42.64102" height="38" overflow="visible"/><use x="1075.5" y="428.5" xlink:href="#symbol-2" width="37" height="37" overflow="visible"/><use x="1225.67949" y="383" xlink:href="#symbol-5" width="42.64102" height="38" overflow="visible"/><use x="1422" y="393" xlink:href="#symbol-1" width="18" height="40" overflow="visible"/><use x="1547.5" y="427.5" xlink:href="#symbol-2" width="37" height="37" overflow="visible"/><use x="21.67949" y="557" xlink:href="#symbol-5" width="42.64102" height="38" overflow="visible"/><use x="240.67949" y="525" xlink:href="#symbol-5" width="42.64102" height="38" overflow="visible"/><use x="418.5" y="598.5" xlink:href="#symbol-2" width="37" height="37" overflow="visible"/><use x="521.67949" y="541" xlink:href="#symbol-5" width="42.64102" height="38" overflow="visible"/><use x="756.5" y="581.5" xlink:href="#symbol-3" width="25" height="25" overflow="visible"/><use x="859.67949" y="547" xlink:href="#symbol-5" width="42.64102" height="38" overflow="visible"/><use x="1045.67949" y="585" xlink:href="#symbol-5" width="42.64102" height="38" overflow="visible"/><use x="1281.5" y="606.5" xlink:href="#symbol-3" width="25" height="25" overflow="visible"/><use x="1426.67949" y="559" xlink:href="#symbol-5" width="42.64102" height="38" overflow="visible"/><use x="1615" y="525" xlink:href="#symbol-1" width="18" height="40" overflow="visible"/><use x="68.67949" y="745" xlink:href="#symbol-5" width="42.64102" height="38" overflow="visible"/><use x="186.35786" y="721.35786" xlink:href="#symbol-4" width="35.28427" height="35.28427" overflow="visible"/><use x="376.5" y="717.5" xlink:href="#symbol-3" width="25" height="25" overflow="visible"/><use x="581.5" y="739.5" xlink:href="#symbol-2" width="37" height="37" overflow="visible"/><use x="725" y="691" xlink:href="#symbol-1" width="18" height="40" overflow="visible"/><use x="874" y="726" xlink:href="#symbol-1" width="18" height="40" overflow="visible"/><use x="1049.5" y="720.5" xlink:href="#symbol-2" width="37" height="37" overflow="visible"/><use x="1284.5" y="713.5" xlink:href="#symbol-3" width="25" height="25" overflow="visible"/><use x="1387.35786" y="759.35786" xlink:href="#symbol-4" width="35.28427" height="35.28427" overflow="visible"/><use x="1610.5" y="727.5" xlink:href="#symbol-2" width="37" height="37" overflow="visible"/></g></svg>